HIERARCHY
ROOT Hips
{
	OFFSET 0.00000 0.00000 0.00000
	CHANNELS 6 Xposition Yposition Zposition Zrotation Yrotation Xrotation 
	JOINT LHipJoint
	{
		OFFSET 0 0 0
		CHANNELS 3 Zrotation Yrotation Xrotation
		JOINT LeftHip
		{
			OFFSET 2.36090 -1.39315 1.24752
			CHANNELS 3 Zrotation Yrotation Xrotation
			JOINT LeftKnee
			{
				OFFSET 2.06810 -5.68207 0.00000
				CHANNELS 3 Zrotation Yrotation Xrotation
				JOINT LeftAnkle
				{
					OFFSET 2.46631 -6.77613 0.00000
					CHANNELS 3 Zrotation Yrotation Xrotation
					JOINT LeftToe
					{
						OFFSET 0.26031 -0.71520 1.99545
						CHANNELS 3 Zrotation Yrotation Xrotation
						End Site
						{
							OFFSET 0.00000 -0.00000 1.05957
						}
					}
				}
			}
		}
	}
	JOINT RHipJoint
	{
		OFFSET 0 0 0
		CHANNELS 3 Zrotation Yrotation Xrotation
		JOINT RightHip
		{
			OFFSET -2.25243 -1.39315 1.24752
			CHANNELS 3 Zrotation Yrotation Xrotation
			JOINT RightKnee
			{
				OFFSET -2.17343 -5.97145 0.00000
				CHANNELS 3 Zrotation Yrotation Xrotation
				JOINT RightAnkle
				{
					OFFSET -2.52372 -6.93386 0.00000
					CHANNELS 3 Zrotation Yrotation Xrotation
					JOINT RightToe
					{
						OFFSET -0.22538 -0.61923 2.11447
						CHANNELS 3 Zrotation Yrotation Xrotation
						End Site
						{
							OFFSET -0.00000 -0.00000 1.10506
						}
					}
				}
			}
		}
	}
	JOINT lowerback
	{
		OFFSET 0 0 0
		CHANNELS 3 Zrotation Yrotation Xrotation
		JOINT Chest
		{
			OFFSET 0.01594 2.13103 0.08007
			CHANNELS 3 Zrotation Yrotation Xrotation
			JOINT Chest2
			{
				OFFSET 0.01393 2.09723 0.18338
				CHANNELS 3 Zrotation Yrotation Xrotation
				JOINT lowerneck
				{
					OFFSET 0 0 0
					CHANNELS 3 Zrotation Yrotation Xrotation
					JOINT Neck
					{
						OFFSET 0.05351 1.38915 0.32494
						CHANNELS 3 Zrotation Yrotation Xrotation
						JOINT Head
						{
							OFFSET 0.00711 1.45992 -0.21666
							CHANNELS 3 Zrotation Yrotation Xrotation
							End Site
							{
								OFFSET -0.00433 1.47702 -0.11056
							}
						}
					}
				}
				JOINT LeftCollar
				{
					OFFSET 0 0 0
					CHANNELS 3 Zrotation Yrotation Xrotation
					JOINT LeftShoulder
					{
						OFFSET 2.87198 0.92249 0.11132
CHANNELS 3 Zrotation Xrotation Yrotation
						JOINT LeftElbow
						{
OFFSET 0 -5.527310 0.000000
CHANNELS 3 Zrotation Xrotation Yrotation
							JOINT LeftWrist
							{
OFFSET 0 -3.110590 0.000000
CHANNELS 3 Zrotation Xrotation Yrotation
								JOINT lhand
								{
									OFFSET 0 0 0
CHANNELS 3 Zrotation Xrotation Yrotation
									JOINT LFingers
									{
OFFSET 0 -0.419630 0.000000
CHANNELS 3 Zrotation Xrotation Yrotation
										End Site
										{
OFFSET 0 -0.338310 0.000000
										}
									}
								}
								JOINT LThumb
								{
OFFSET 0 0.000000 0.000000
CHANNELS 3 Zrotation Xrotation Yrotation
									End Site
									{
OFFSET 0 -0.343480 0.343480
									}
								}
							}
						}
					}
				}
				JOINT RightCollar
				{
					OFFSET 0 0 0
					CHANNELS 3 Zrotation Yrotation Xrotation
					JOINT RightShoulder
					{
						OFFSET -2.94710 0.68072 0.32187
CHANNELS 3 Zrotation Xrotation Yrotation
						JOINT RightElbow
						{
OFFSET 0 -5.253960 -0.000000
CHANNELS 3 Zrotation Xrotation Yrotation
							JOINT RightWrist
							{
OFFSET 0 -3.105670 0.000000
CHANNELS 3 Zrotation Xrotation Yrotation
								JOINT rhand
								{
									OFFSET 0 0 0
CHANNELS 3 Zrotation Xrotation Yrotation
									JOINT RFingers
									{
OFFSET 0 -0.498680 0.000000
CHANNELS 3 Zrotation Xrotation Yrotation
										End Site
										{
OFFSET 0 -0.402040 0.000000
										}
									}
								}
								JOINT RThumb
								{
OFFSET 0 0.000000 0.000000
CHANNELS 3 Zrotation Xrotation Yrotation
									End Site
									{
OFFSET 0 -0.408180 0.408180
									}
								}
							}
						}
					}
				}
			}
		}
	}
}
MOTION
Frames: 4
Frame Time: 0.008333333333333333
-0.385228 16.031006 -28.103075 164.846628 72.692363 -174.797516 0.000000 0.000000 0.000000 -12.557529 -16.558890 -47.375582 11.306342 18.079802 63.770025 0.010521 -1.147969 -1.891929 1.723009 -8.263251 -23.516770 0.000000 0.000000 0.000000 23.499757 31.647609 -27.671468 -4.096827 -12.288223 36.759216 -0.746764 -0.066432 -16.359425 -0.481950 -4.451925 12.351717 2.624596 -2.921707 -8.978410 4.538240 -3.958728 -3.982697 2.838189 -1.878548 1.034786 -4.954111 -15.215060 -7.516237 7.202482 -20.953975 14.040889 1.159212 -9.799741 6.801889 0.000000 0.000000 0.000000 7.493408 22.773026 -38.152786 9.208490 -15.491812 1.255407 18.571335 -30.368285 3.535842 0.000000 0.000000 0.000000 -7.125000 0.000000 0.000000 -6.106298 26.242234 -2.792361 0.000000 0.000000 0.000000 -13.519407 0.056754 59.536979 -46.971631 -51.684335 -23.780094 -14.542434 -12.243296 12.799046 0.000000 0.000000 0.000000 7.125000 0.000000 0.000000 11.538999 42.891589 0.609580
-0.208944 16.042086 -28.183626 161.919229 74.568000 -177.205329 0.000000 0.000000 0.000000 -12.107374 -17.253429 -48.069039 10.449426 17.651738 60.976043 0.026570 0.100480 -3.140141 1.823699 -8.488452 -24.208136 0.000000 0.000000 0.000000 23.018080 32.514998 -27.184010 -4.130262 -12.331758 36.915952 -0.796348 0.815896 -16.608177 -0.476304 -4.425961 12.278161 2.069821 -2.757272 -9.069879 4.226482 -3.717733 -3.914103 2.841391 -1.763633 1.165095 -5.368529 -15.728942 -7.464598 7.572869 -21.644239 13.597299 1.253432 -10.148339 6.781478 0.000000 0.000000 0.000000 7.449475 23.973021 -36.392415 8.959811 -15.096395 1.189648 19.198597 -28.029918 2.163645 0.000000 0.000000 0.000000 -7.125000 0.000000 0.000000 -5.685043 27.676051 -2.407576 0.000000 0.000000 0.000000 -13.621079 -0.380261 61.212874 -51.534527 -53.577775 -27.409227 -13.889139 -12.652600 12.264075 0.000000 0.000000 0.000000 7.125000 0.000000 0.000000 11.984946 42.288620 0.815368
-0.040902 16.060157 -28.241271 158.042977 76.293679 -178.597419 0.000000 0.000000 0.000000 -10.840995 -18.464798 -51.007208 9.528547 17.134271 57.898005 0.026935 1.467445 -4.010299 1.916451 -8.689725 -24.829655 0.000000 0.000000 0.000000 21.098158 34.308996 -29.251397 -4.175186 -12.390007 37.125909 -0.811438 1.491488 -16.581927 -0.463235 -4.365891 12.108340 1.291434 -2.700434 -11.041248 4.028647 -3.592847 -4.426175 3.014394 -1.680060 1.744131 -5.884274 -16.245468 -7.413521 7.846067 -22.318100 13.249549 1.326236 -10.497065 6.795236 0.000000 0.000000 0.000000 7.427341 25.436786 -35.598995 9.142803 -15.387586 1.237783 20.481516 -27.014191 0.977736 0.000000 0.000000 0.000000 -7.125000 0.000000 0.000000 -4.745403 28.922741 -1.865131 0.000000 0.000000 0.000000 -13.778255 -0.766268 62.824488 -56.304912 -55.235733 -31.286847 -13.267043 -12.888586 11.943419 0.000000 0.000000 0.000000 7.125000 0.000000 0.000000 12.452385 41.907104 0.966712
0.141719 16.071853 -28.314195 153.292494 77.893240 -183.047526 0.000000 0.000000 0.000000 -10.365837 -19.213978 -51.008254 8.500350 16.469164 54.336172 0.024336 2.782335 -5.202461 1.964769 -8.792288 -25.147670 0.000000 0.000000 0.000000 20.660489 34.781947 -28.590359 -4.195227 -12.415720 37.219020 -0.855871 2.577048 -16.804198 -0.469555 -4.395072 12.190887 0.670824 -2.653519 -10.947813 3.682721 -3.479326 -4.362657 3.018455 -1.630561 1.770708 -6.508931 -16.760833 -7.313025 8.160767 -22.992422 12.975424 1.419278 -10.844788 6.847769 0.000000 0.000000 0.000000 7.569342 27.011120 -35.653023 9.592737 -16.099519 1.360214 21.982417 -27.430327 0.528993 0.000000 0.000000 0.000000 -7.125000 0.000000 0.000000 -3.591490 29.400584 -1.368662 0.000000 0.000000 0.000000 -13.896807 -1.063967 64.264348 -61.283036 -56.624823 -35.414379 -12.842920 -12.966249 11.780675 0.000000 0.000000 0.000000 7.125000 0.000000 0.000000 12.782790 41.704686 1.058519
